<svg xmlns="http://www.w3.org/2000/svg" viewBox="0 0 256 256">
  <!-- flat tile in the app's card color, hairline border -->
  <rect x="4" y="4" width="248" height="248" rx="56" fill="#171c2b"/>
  <rect x="5.5" y="5.5" width="245" height="245" rx="54" fill="none" stroke="#262c42" stroke-width="3"/>

  <!-- gamepad mark: Tabler device-gamepad-2 (MIT) paths on their native
       24-grid, scaled up for a chunky icon feel, in the app accent -->
  <g transform="translate(40,40) scale(7.3333)" fill="none" stroke="#afa9ec"
     stroke-width="2.4" stroke-linecap="round" stroke-linejoin="round">
    <path d="M12 5h3.5a5 5 0 0 1 0 10h-5.5l-4.015 4.227a2.3 2.3 0 0 1 -3.923 -2.035l1.634 -8.173a5 5 0 0 1 4.904 -4.019h3.4" />
    <path d="M14 15l4.07 4.284a2.3 2.3 0 0 0 3.925 -2.023l-1.6 -8.232" />
    <path d="M8 9v2" />
    <path d="M7 10h2" />
    <path d="M14 10h2" />
  </g>
</svg>
